<?xml version="1.0" standalone="no"?>
<!DOCTYPE svg PUBLIC "-//W3C//DTD SVG 20010904//EN"
 "http://www.w3.org/TR/2001/REC-SVG-20010904/DTD/svg10.dtd">
<svg version="1.0" xmlns="http://www.w3.org/2000/svg"
 width="320.000000pt" height="320.000000pt" viewBox="0 0 320.000000 320.000000"
 preserveAspectRatio="xMidYMid meet">
<metadata>
Created by potrace 1.11, written by Peter Selinger 2001-2013
</metadata>
<g transform="translate(0.000000,320.000000) scale(0.100000,-0.100000)"
fill="#000000" stroke="none">
<path d="M250 1725 l0 -1225 1225 0 1225 0 0 1225 0 1225 -1225 0 -1225 0 0
-1225z m1960 805 l0 -230 -455 0 c-250 0 -455 -3 -455 -6 0 -4 -10 -67 -21
-141 -12 -73 -20 -135 -18 -137 2 -2 51 12 109 32 102 35 109 36 255 37 130 0
160 -3 225 -23 119 -37 187 -79 275 -167 138 -138 191 -281 182 -490 -6 -125
-28 -208 -88 -325 -97 -191 -247 -307 -467 -363 -75 -18 -115 -21 -287 -22
-205 0 -256 6 -385 47 -108 34 -188 84 -277 173 -67 68 -89 99 -126 176 -45
94 -71 169 -59 169 4 0 128 14 277 30 148 17 274 30 280 30 5 0 18 -26 27 -58
25 -85 73 -150 138 -186 46 -26 65 -30 125 -30 81 -1 129 18 183 72 70 71 104
211 84 353 -26 179 -112 261 -277 263 -71 1 -88 -3 -145 -31 -36 -18 -82 -49
-103 -71 l-38 -38 -237 34 c-130 18 -239 36 -241 38 -3 2 35 250 84 549 l89
545 673 0 673 0 0 -230z"/>
</g>
</svg>
